<svg width="745" height="616" viewBox="0 0 745 616" fill="#f4ffff" xmlns="http://www.w3.org/2000/svg">
<path opacity="0.942" fill-rule="evenodd" clip-rule="evenodd" d="M575.578 0C602.276 2.82538 617.718 17.7997 621.905 44.9231C641.575 153.568 665.91 261.197 694.905 367.808C718.857 430.866 735.235 495.443 744.039 561.539C708.168 505.691 680.56 445.795 661.212 381.847C631.72 274.638 608.324 166.073 591.02 56.1539C587.805 49.343 584.063 42.7918 579.789 36.5C572.411 41.064 565.86 46.6793 560.135 53.3462C541.416 79.5513 522.7 105.757 503.981 131.962C486.714 164.813 468.464 195.698 449.231 224.616C420.927 274.68 391.915 324.283 362.193 373.424C396.834 423.611 426.315 476.957 450.635 533.462C457.694 543.219 455.355 547.431 443.616 546.097C429.109 531.589 414.604 517.085 400.097 502.578C379.777 472.26 360.124 441.375 341.135 409.924C316.09 453.46 291.756 497.445 268.135 541.885C257.497 552.939 253.751 550.132 256.904 533.462C280.991 486.223 305.792 439.427 331.308 393.077C317.503 370.139 302.995 347.677 287.789 325.693C267.026 299.458 248.31 301.33 231.635 331.308C191.754 400.304 157.593 471.901 129.154 546.097C117.909 549.18 108.082 546.841 99.6732 539.078C90.7661 526.889 83.2788 513.786 77.2116 499.77C63.6974 462.023 49.6589 424.585 35.0962 387.462C22.9417 349.115 11.2429 310.745 0 272.346C4.55914 271.953 7.8346 273.826 9.82694 277.962C34.0416 351.543 62.1186 423.608 94.0578 494.154C99.516 504.29 106.067 513.648 113.712 522.231C130.137 481.399 146.048 440.219 161.443 398.693C177.752 364.2 195.534 330.508 214.789 297.616C250.295 258.544 283.987 260.417 315.866 303.231C326.872 320.566 338.572 337.412 350.962 353.77C401.694 260.841 453.637 167.251 506.789 73.0001C520.516 50.6958 535.958 29.638 553.116 9.82694C560.579 5.67716 568.067 2.4017 575.578 0Z"/>
<path opacity="0.923" fill-rule="evenodd" clip-rule="evenodd" d="M168.463 516.616C171.417 516.198 174.224 516.664 176.886 518.02C195.001 539.873 216.525 557.656 241.463 571.366C292.583 587.292 344.994 594.311 398.694 592.424C482.813 593.609 565.171 582.378 645.771 558.732C652.552 559.347 655.36 563.089 654.194 569.963C538.138 606.28 419.28 620.785 297.617 613.482C255.844 611.244 217.471 599.076 182.501 576.982C160.964 559.846 156.285 539.727 168.463 516.616Z" />
<path opacity="0.957" fill-rule="evenodd" clip-rule="evenodd" d="M154.424 154.423C172.334 155.487 181.693 164.846 182.501 182.5C180.721 196.362 176.51 209.465 169.866 221.808C153.521 230.967 139.482 228.159 127.751 213.385C104.99 178.447 113.881 158.793 154.424 154.423Z"/>
</svg>
