<svg version="1.1" xmlns="http://www.w3.org/2000/svg" viewBox="200 100 600 600" width="250" height="250">
    <path d="M0 0 C12.05253769 7.97264139 15.7977245 22.10194196 18.875 35.4375 C19.13063721 36.52554932 19.38627441 37.61359863 19.6496582 38.73461914 C22.861293 52.60253699 25.39758813 66.56264612 27.66308594 80.61157227 C29.0540448 89.03019396 30.85769728 97.3618487 32.62890625 105.70703125 C33.55661393 110.08151354 34.44113144 114.4619011 35.29492188 118.85131836 C37.39009911 129.60708602 39.79742903 140.28837839 42.23120117 150.97143555 C44.05341108 158.97150186 45.83553625 166.97874368 47.5625 175 C50.87843058 190.31234239 54.54792263 205.39465913 58.94628906 220.43554688 C59.80742842 223.39294028 60.65974278 226.35275653 61.50840759 229.31375122 C62.28851301 232.03469065 63.0715204 234.75479095 63.85488892 237.47479248 C64.23549557 238.79781478 64.61523342 240.12108742 64.99398804 241.44464111 C67.7112307 250.93075783 70.6989349 260.28506094 73.875 269.625 C74.42918572 271.27316862 74.98270037 272.92156324 75.53515625 274.5703125 C75.76904053 275.26640625 76.0029248 275.9625 76.24389648 276.6796875 C83.81484605 299.27794597 89.9385032 322.15637079 95.23388672 345.39404297 C97.47834013 355.15976255 100.0091733 364.82660603 102.7421875 374.46679688 C103.02191406 375.46904297 103.30164063 376.47128906 103.58984375 377.50390625 C103.96290649 378.81210327 103.96290649 378.81210327 104.34350586 380.14672852 C104.89367726 382.71208905 104.97137159 385.00949257 104.875 387.625 C103.555 387.625 102.235 387.625 100.875 387.625 C98.60539722 383.68172366 96.34700702 379.7322603 94.09863281 375.77685547 C93.2816814 374.34018153 92.46331712 372.90431011 91.64355469 371.46923828 C86.55031023 362.5350883 81.7318248 353.56018161 77.47460938 344.1940918 C76.23084508 341.46215684 74.99528848 338.81739776 73.40234375 336.26953125 C71.55724228 333.07481592 70.28744129 329.78455759 68.95068359 326.35107422 C67.88838192 323.65891341 66.76366421 321.00324966 65.61328125 318.34765625 C59.59108131 304.3474022 54.48858434 290.18864513 49.85058594 275.67382812 C48.98896165 272.98114443 48.11171979 270.29438859 47.2265625 267.609375 C43.29371832 255.57349364 40.03660674 243.36969477 36.80908203 231.12890625 C35.87131408 227.61117345 34.90612087 224.10201923 33.93359375 220.59375 C26.93990197 195.1988628 21.44785482 169.49428427 16.59912109 143.60888672 C15.30145654 136.7067201 13.84753941 129.85293769 12.3125 123 C10.41607557 114.4762859 8.85536313 105.93866641 7.46459961 97.3190918 C4.5615218 79.36899434 1.36162947 61.43391542 -2.3125 43.625 C-2.45494141 42.92141357 -2.59738281 42.21782715 -2.74414062 41.49291992 C-3.68098331 37.08770861 -4.98901027 32.92403617 -6.5324707 28.703125 C-7.125 26.625 -7.125 26.625 -7.125 22.625 C-12.83439788 22.16824817 -15.67627459 23.00394444 -20.125 26.625 C-20.785 27.615 -21.445 28.605 -22.125 29.625 C-22.785 29.625 -23.445 29.625 -24.125 29.625 C-24.49625 30.429375 -24.49625 30.429375 -24.875 31.25 C-26.43152537 34.2073982 -28.15935673 36.92224051 -30.125 39.625 C-30.785 39.625 -31.445 39.625 -32.125 39.625 C-32.38152344 40.19089844 -32.63804687 40.75679687 -32.90234375 41.33984375 C-34.71320001 44.72435146 -37.15502027 47.53103331 -39.56640625 50.50390625 C-41.2983559 52.63353351 -41.2983559 52.63353351 -42.125 55.625 C-43.125 56.625 -44.125 57.625 -45.125 58.625 C-46.30074711 60.72489652 -46.30074711 60.72489652 -47.125 62.625 C-47.785 62.625 -48.445 62.625 -49.125 62.625 C-49.785 64.605 -50.445 66.585 -51.125 68.625 C-51.785 68.625 -52.445 68.625 -53.125 68.625 C-53.48078125 69.90503906 -53.48078125 69.90503906 -53.84375 71.2109375 C-55.2650195 74.99810073 -57.25875703 78.01437064 -59.625 81.25 C-63.23306711 86.21929821 -63.23306711 86.21929821 -66.125 91.625 C-66.785 91.625 -67.445 91.625 -68.125 91.625 C-68.37765625 92.48351562 -68.6303125 93.34203125 -68.890625 94.2265625 C-70.20082301 97.83375322 -71.85312888 100.73916274 -73.875 104 C-74.67742529 105.30888936 -75.4780751 106.61886817 -76.27734375 107.9296875 C-76.72319824 108.66026367 -77.16905273 109.39083984 -77.62841797 110.14355469 C-80.62042597 115.10452847 -83.52321659 120.1181182 -86.4375 125.125 C-87.03594727 126.15157715 -87.63439453 127.1781543 -88.25097656 128.23583984 C-91.23132722 133.35302989 -94.19707188 138.47763007 -97.125 143.625 C-97.785 143.625 -98.445 143.625 -99.125 143.625 C-99.36992188 144.30691406 -99.61484375 144.98882812 -99.8671875 145.69140625 C-101.3629555 149.17998316 -103.26455658 152.33950824 -105.25 155.5625 C-108.2815717 160.54503477 -111.24994698 165.55035822 -114.125 170.625 C-117.39476594 176.39478819 -120.77828959 182.08602781 -124.24414062 187.74023438 C-125.83310924 190.35452677 -127.15361697 192.7108509 -128.125 195.625 C-128.785 195.625 -129.445 195.625 -130.125 195.625 C-130.21910156 196.15738281 -130.31320312 196.68976563 -130.41015625 197.23828125 C-131.35771557 200.40199024 -132.89937958 202.9580901 -134.5625 205.8125 C-134.91449463 206.41908447 -135.26648926 207.02566895 -135.62915039 207.65063477 C-136.78905272 209.64528275 -137.95660591 211.63531591 -139.125 213.625 C-139.93758783 215.01557368 -140.75008669 216.40619935 -141.5625 217.796875 C-145.23327572 224.06718277 -148.92896249 230.32220806 -152.67749023 236.54638672 C-153.42687208 237.79498034 -154.17128782 239.04656965 -154.91040039 240.30126953 C-156.65434726 243.25195654 -158.43854253 246.06940781 -160.41796875 248.875 C-164.21871743 254.10127716 -164.21871743 254.10127716 -164.6875 260.23828125 C-163.40383599 262.95339953 -161.91391931 265.21384789 -160.125 267.625 C-159.57328125 268.42421875 -159.0215625 269.2234375 -158.453125 270.046875 C-157.30528603 271.70018434 -156.1407654 273.34202074 -154.9609375 274.97265625 C-151.70787184 279.67229792 -148.95866817 284.66608071 -146.125 289.625 C-145.56296875 290.52605469 -145.0009375 291.42710937 -144.421875 292.35546875 C-143.125 294.625 -143.125 294.625 -143.125 296.625 C-142.465 296.625 -141.805 296.625 -141.125 296.625 C-140.856875 297.13546875 -140.58875 297.6459375 -140.3125 298.171875 C-137.87305633 302.69768497 -135.24328119 306.9618569 -132.3125 311.1875 C-127.4970869 318.31539962 -123.79831106 325.86828866 -120.125 333.625 C-119.56554687 334.79933594 -119.00609375 335.97367187 -118.4296875 337.18359375 C-116.2368013 341.86138366 -114.14599011 346.54426446 -112.25390625 351.3515625 C-109.76621339 357.62554037 -106.91295374 363.72249926 -104.04101562 369.828125 C-103.45416992 371.10429688 -103.45416992 371.10429688 -102.85546875 372.40625 C-102.49864014 373.17001953 -102.14181152 373.93378906 -101.77416992 374.72070312 C-101.45283081 375.66333008 -101.45283081 375.66333008 -101.125 376.625 C-101.455 377.285 -101.785 377.945 -102.125 378.625 C-104.435 378.295 -106.745 377.965 -109.125 377.625 C-109.125 376.965 -109.125 376.305 -109.125 375.625 C-109.70024414 375.37427734 -110.27548828 375.12355469 -110.86816406 374.86523438 C-113.42941196 373.45771173 -115.16557392 371.84329975 -117.234375 369.78125 C-117.98847656 369.02972656 -118.74257813 368.27820313 -119.51953125 367.50390625 C-120.29683594 366.71886719 -121.07414062 365.93382812 -121.875 365.125 C-123.06416016 363.94744141 -123.06416016 363.94744141 -124.27734375 362.74609375 C-125.02628906 361.99457031 -125.77523438 361.24304688 -126.546875 360.46875 C-127.23362305 359.77974609 -127.92037109 359.09074219 -128.62792969 358.38085938 C-130.125 356.625 -130.125 356.625 -130.125 354.625 C-130.785 354.625 -131.445 354.625 -132.125 354.625 C-133.7109375 352.578125 -133.7109375 352.578125 -135.5 349.875 C-137.21680986 347.28844065 -138.78923161 344.94971429 -141.0234375 342.7890625 C-143.97346016 339.75130683 -146.10742949 336.31326832 -148.375 332.75 C-148.85735107 331.99912109 -149.33970215 331.24824219 -149.83666992 330.47460938 C-153.54974079 324.64603039 -156.99426659 318.69721438 -160.375 312.671875 C-162.22720491 309.44705396 -164.23687852 306.39568254 -166.33984375 303.33203125 C-170.80450455 296.56176881 -174.923138 289.56042785 -179.125 282.625 C-180.94200979 285.72654778 -182.75282136 288.83166987 -184.5625 291.9375 C-185.07876953 292.81857422 -185.59503906 293.69964844 -186.12695312 294.60742188 C-186.62001953 295.45498047 -187.11308594 296.30253906 -187.62109375 297.17578125 C-188.07669678 297.95606689 -188.5322998 298.73635254 -189.00170898 299.5402832 C-190.25019311 301.71455208 -190.25019311 301.71455208 -191.125 304.625 C-191.785 304.625 -192.445 304.625 -193.125 304.625 C-193.23714844 305.17671875 -193.34929687 305.7284375 -193.46484375 306.296875 C-194.23860773 309.02565211 -195.39317694 311.35272943 -196.6875 313.875 C-197.14253906 314.76703125 -197.59757813 315.6590625 -198.06640625 316.578125 C-198.59041016 317.59132813 -198.59041016 317.59132813 -199.125 318.625 C-199.785 318.625 -200.445 318.625 -201.125 318.625 C-201.20492187 319.30691406 -201.28484375 319.98882812 -201.3671875 320.69140625 C-202.33184741 324.42573404 -204.20383777 327.34434966 -206.25 330.5625 C-210.05644942 336.70846404 -213.34649913 342.9350497 -216.51953125 349.43359375 C-218.32605548 353.02466503 -220.33116833 356.42483511 -222.453125 359.8359375 C-223.81639146 362.11017173 -225.09981821 364.39479477 -226.359375 366.7265625 C-226.75398926 367.45117676 -227.14860352 368.17579102 -227.55517578 368.92236328 C-228.33852162 370.36644708 -229.11327263 371.81523372 -229.87841797 373.26904297 C-233.2405972 379.42979914 -233.2405972 379.42979914 -237.125 380.625 C-237.785 379.965 -238.445 379.305 -239.125 378.625 C-238.85253462 373.30150851 -237.21237622 369.15897924 -234.73046875 364.53125 C-234.38699905 363.87080185 -234.04352936 363.2103537 -233.68965149 362.52989197 C-232.57368854 360.38965753 -231.44336572 358.25739165 -230.3125 356.125 C-229.53422527 354.63989181 -228.75688886 353.15429152 -227.98046875 351.66821289 C-226.42759601 348.69936429 -224.86927085 345.7334859 -223.30615234 342.77001953 C-221.40154027 339.1563661 -219.518072 335.5322248 -217.64453125 331.90234375 C-212.98729097 322.88664893 -208.24690535 313.9429198 -203.20947266 305.13354492 C-200.19826972 299.84081385 -197.50189361 294.43288006 -194.8359375 288.95703125 C-192.57796857 284.55966254 -189.9865448 280.40123664 -187.3125 276.24609375 C-185.84751406 273.01252281 -185.91380507 271.93958694 -187.125 268.625 C-188.45583696 266.21267679 -189.81901301 263.93184687 -191.3125 261.625 C-191.74159668 260.94872559 -192.17069336 260.27245117 -192.61279297 259.57568359 C-197.16409099 252.45239898 -201.89342095 245.44233666 -206.65307617 238.45703125 C-207.23420166 237.59722656 -207.81532715 236.73742187 -208.4140625 235.8515625 C-208.93693848 235.08408691 -209.45981445 234.31661133 -209.99853516 233.52587891 C-211.125 231.625 -211.125 231.625 -211.125 229.625 C-211.785 229.625 -212.445 229.625 -213.125 229.625 C-214.4140625 228.1640625 -214.4140625 228.1640625 -215.75 226.25 C-216.19601562 225.62351562 -216.64203125 224.99703125 -217.1015625 224.3515625 C-218.125 222.625 -218.125 222.625 -218.125 220.625 C-218.785 220.625 -219.445 220.625 -220.125 220.625 C-220.125 219.965 -220.125 219.305 -220.125 218.625 C-220.785 218.625 -221.445 218.625 -222.125 218.625 C-222.125 217.965 -222.125 217.305 -222.125 216.625 C-222.785 216.625 -223.445 216.625 -224.125 216.625 C-224.125 215.965 -224.125 215.305 -224.125 214.625 C-224.785 214.625 -225.445 214.625 -226.125 214.625 C-226.125 213.965 -226.125 213.305 -226.125 212.625 C-229.02540319 211.79442999 -231.61072102 211.48967713 -234.625 211.5 C-235.3778125 211.49742187 -236.130625 211.49484375 -236.90625 211.4921875 C-239.098535 211.62341583 -241.01819137 212.02168662 -243.125 212.625 C-243.125 213.285 -243.125 213.945 -243.125 214.625 C-244.115 215.429375 -245.105 216.23375 -246.125 217.0625 C-252.06611286 221.96301061 -256.8940944 228.63837164 -260.125 235.625 C-260.785 235.625 -261.445 235.625 -262.125 235.625 C-262.23457031 236.19089844 -262.34414063 236.75679687 -262.45703125 237.33984375 C-263.22220496 239.95754327 -264.36310786 241.87836344 -265.8125 244.1875 C-269.11382655 249.56975751 -272.14517503 255.05943363 -275.125 260.625 C-275.80074863 261.87111144 -276.47653197 263.11720406 -277.15234375 264.36328125 C-282.68061937 274.61488786 -287.81377888 285.02756223 -292.71679688 295.59179688 C-293.69773088 297.70468247 -294.68380302 299.81518701 -295.67382812 301.92382812 C-303.06099167 317.70266722 -309.45478765 333.47637133 -314.90625 350.03125 C-316.42247158 354.59617448 -317.99774534 359.13100963 -319.671875 363.640625 C-320.05182617 364.66446289 -320.43177734 365.68830078 -320.82324219 366.74316406 C-323.03699959 371.64398783 -326.32961085 375.82961085 -330.125 379.625 C-334.48933768 380.38702721 -338.4661768 380.41905963 -342.5078125 378.484375 C-356.24236186 368.62612703 -362.7161293 350.21716307 -368.01953125 334.8046875 C-368.94458573 332.14393008 -369.93175736 329.54274998 -371 326.9375 C-375.61292991 315.59118045 -379.67670932 304.0101596 -383.71655273 292.44946289 C-385.19596528 288.22456957 -386.71025703 284.01439095 -388.25390625 279.8125 C-392.2486527 268.91074119 -396.01393898 258.00661967 -399.31567383 246.875 C-401.95813963 238.02609257 -404.83395079 229.26162629 -407.75 220.5 C-408.09523712 219.45706787 -408.09523712 219.45706787 -408.44744873 218.39306641 C-411.14344277 210.25665325 -413.97642454 202.2390596 -417.22021484 194.30126953 C-418.125 191.625 -418.125 191.625 -418.125 187.625 C-416.27563477 187.82006836 -416.27563477 187.82006836 -414.125 188.625 C-412.83569336 190.70922852 -412.83569336 190.70922852 -411.71484375 193.50390625 C-411.07434082 195.07990601 -411.07434082 195.07990601 -410.42089844 196.68774414 C-409.97262695 197.84266357 -409.52435547 198.99758301 -409.0625 200.1875 C-408.5871582 201.38173584 -408.11181641 202.57597168 -407.62207031 203.80639648 C-403.39590006 214.52008122 -399.66375415 225.4027456 -395.98144531 236.31274414 C-392.86273086 245.54928027 -389.51146161 254.65535139 -385.88378906 263.70410156 C-384.60135774 266.95061688 -383.39881557 270.22644804 -382.1875 273.5 C-377.66902087 285.63538761 -373.03071273 297.76159432 -367.51953125 309.484375 C-366.32931377 312.16486479 -365.22071284 314.85375048 -364.13671875 317.578125 C-355.51452009 339.59088499 -355.51452009 339.59088499 -342.33984375 359.05859375 C-341.125 360.625 -341.125 360.625 -341.125 362.625 C-339.805 362.955 -338.485 363.285 -337.125 363.625 C-334.19425361 358.12985051 -332.16462081 352.95774493 -330.625 346.9375 C-330.20183442 345.35381509 -329.77734497 343.77048335 -329.3515625 342.1875 C-329.14563477 341.41535156 -328.93970703 340.64320313 -328.72753906 339.84765625 C-327.87261439 336.69399572 -326.9481656 333.56427511 -326 330.4375 C-325.70867187 329.47457031 -325.41734375 328.51164062 -325.1171875 327.51953125 C-323.9580126 324.13784385 -322.54251832 320.90635854 -321.125 317.625 C-320.21650444 315.21306489 -319.321345 312.79607686 -318.4375 310.375 C-313.74825368 297.72434919 -308.49415014 285.30175797 -302.69726562 273.11914062 C-300.89123075 269.31459096 -299.19565637 265.47818089 -297.55322266 261.6003418 C-294.52338395 254.46834414 -291.09922019 247.86389516 -287.15625 241.18359375 C-284.97672355 237.44144704 -283.08271771 233.57921375 -281.1875 229.6875 C-273.47360148 214.06355492 -263.66991989 194.22277877 -246.08203125 188.21875 C-237.78379508 185.70112146 -228.52170862 185.0475533 -220.625 188.9375 C-217.61285286 190.60924167 -214.75639713 192.39429289 -212.125 194.625 C-212.125 195.285 -212.125 195.945 -212.125 196.625 C-211.568125 196.851875 -211.01125 197.07875 -210.4375 197.3125 C-199.22077957 203.67874673 -190.85382955 219.27943687 -183.625 229.625 C-182.93043701 230.61612793 -182.23587402 231.60725586 -181.52026367 232.62841797 C-178.37528878 237.1688862 -175.37773729 241.57340728 -173.125 246.625 C-165.60672229 237.11113006 -160.42231636 225.47734001 -155.125 214.625 C-154.46007227 213.29079861 -153.79426449 211.95703126 -153.125 210.625 C-152.465 210.625 -151.805 210.625 -151.125 210.625 C-151.02316406 210.09777344 -150.92132813 209.57054687 -150.81640625 209.02734375 C-148.50998309 201.01350057 -143.61611587 193.26051643 -139.1875 186.25 C-135.78987708 180.86224728 -132.91610749 175.36109353 -130.12963867 169.64599609 C-127.91071314 165.12119228 -125.53817877 160.72824004 -123 156.375 C-120.52494568 152.12446811 -118.20953424 147.86255466 -116.0625 143.4375 C-114.15133922 139.52736835 -112.07687533 135.88716022 -109.6875 132.25 C-106.28042042 127.04182108 -103.53733877 121.6181002 -100.80859375 116.0390625 C-97.412038 109.15138332 -93.64795519 102.48917735 -89.75 95.875 C-87.13727131 91.42877749 -84.65802382 86.93357478 -82.25 82.375 C-79.36727769 76.92726908 -76.43856902 71.5085683 -73.4375 66.125 C-73.08123535 65.47885742 -72.7249707 64.83271484 -72.35791016 64.16699219 C-70.21301638 60.34085834 -67.85175838 56.80310521 -65.26489258 53.26318359 C-63.70040281 51.014795 -62.49529639 48.65447533 -61.3125 46.1875 C-60.89355469 45.32253906 -60.47460938 44.45757812 -60.04296875 43.56640625 C-59.58857422 42.60541016 -59.58857422 42.60541016 -59.125 41.625 C-58.465 41.625 -57.805 41.625 -57.125 41.625 C-56.75375 40.325625 -56.75375 40.325625 -56.375 39 C-55.04699976 35.41439936 -53.43869152 32.66172013 -51.125 29.625 C-50.465 29.625 -49.805 29.625 -49.125 29.625 C-48.8671875 28.90570313 -48.609375 28.18640625 -48.34375 27.4453125 C-44.28715133 18.05792711 -35.29133281 5.85966329 -26.18359375 1.08203125 C-23.50808103 0.095191 -20.89632582 -0.71094429 -18.125 -1.375 C-17.444375 -1.55933594 -16.76375 -1.74367187 -16.0625 -1.93359375 C-10.12055257 -3.28730355 -5.41236419 -2.92894709 0 0 Z " fill="currentColor" transform="translate(647.125,167.375)"/>
    <path d="M0 0 C2.32128906 -0.22265625 2.32128906 -0.22265625 5 0 C6.54589844 1.50390625 6.54589844 1.50390625 7.859375 3.5625 C10.88880921 7.95769446 14.31003255 11.41977752 18.25 15 C19.24386719 15.90999756 19.24386719 15.90999756 20.2578125 16.83837891 C22.1622259 18.57004275 24.07821766 20.28765615 26 22 C26.88171875 22.79148437 27.7634375 23.58296875 28.671875 24.3984375 C45.48422412 38.67200907 66.7877834 44.09878801 88 48 C89.04671875 48.20367188 90.0934375 48.40734375 91.171875 48.6171875 C112.6281637 52.38653552 134.64930448 52.32909018 156.36621094 52.26074219 C160.00701043 52.24939129 163.64751595 52.25611357 167.28830528 52.26761818 C192.93145399 52.33630247 218.37941907 50.99393329 243.875 48.125 C244.64706787 48.03940826 245.41913574 47.95381653 246.21459961 47.8656311 C274.2056786 44.74515843 301.84215426 39.69364367 328.6171875 30.75 C332.41305657 29.90842164 335.21495394 30.22556602 339 31 C339.33 31.99 339.66 32.98 340 34 C339.67 34.66 339.34 35.32 339 36 C338.19433594 36.13019531 337.38867188 36.26039063 336.55859375 36.39453125 C331.79497872 37.20502557 327.56080538 38.95970834 323.0625 40.6875 C261.18893133 63.68407406 191.4422464 68.07063917 126 68.25 C124.90806335 68.25535767 123.81612671 68.26071533 122.69110107 68.26623535 C104.58640889 68.33383731 86.57442695 67.60754079 68.75 64.1875 C67.84435303 64.01718262 66.93870605 63.84686523 66.00561523 63.67138672 C50.87303735 60.71329856 35.7194111 56.14764381 22 49 C22 48.34 22 47.68 22 47 C20.02 46.34 18.04 45.68 16 45 C16 44.34 16 43.68 16 43 C14.88431641 42.61328125 14.88431641 42.61328125 13.74609375 42.21875 C5.03799273 38.35398824 -0.28184116 28.98193351 -4.0703125 20.64453125 C-6.0908788 15.3564726 -6.2382167 11.52435143 -5 6 C-4.34 5.01 -3.68 4.02 -3 3 C-2.34 3 -1.68 3 -1 3 C-0.67 2.01 -0.34 1.02 0 0 Z " fill="currentColor" transform="translate(347,527)"/>
    <path d="M0 0 C4.32283366 5.12335841 3.05295409 12.69930081 2.6875 19 C1.3923944 26.84746187 -2.25906947 35.3270956 -8.2265625 40.734375 C-12.3626701 43.24392343 -17.27307986 43.4370186 -21.9375 42.4375 C-31.9244651 36.39275797 -38.16018912 26.18061003 -41.3125 15 C-41.99474003 10.68443515 -41.68710648 7.73480502 -39.6875 3.8125 C-34.71813307 -2.07227663 -30.87680682 -4.72386806 -23.375 -5.9375 C-22.69759766 -6.07478516 -22.02019531 -6.21207031 -21.32226562 -6.35351562 C-13.45472829 -7.74900403 -6.00361765 -5.19231796 0 0 Z " fill="currentColor" transform="translate(352.3125,280)"/>
</svg>
